<svg width="47" height="20" viewBox="0 0 47 20" fill="none" xmlns="http://www.w3.org/2000/svg">
<path d="M8.5878 2.569C8.03702 3.24199 7.15558 3.77299 6.27424 3.69706C6.16409 2.78711 6.59553 1.82009 7.10051 1.22284C7.65129 0.5309 8.61534 0.0379147 9.3957 0C9.4875 0.947962 9.1294 1.87697 8.5878 2.569ZM9.38652 3.87725C8.11036 3.80142 7.01789 4.62607 6.41194 4.62607C5.7969 4.62607 4.86957 3.91517 3.85971 3.93412C2.54692 3.95308 1.32584 4.72085 0.655631 5.94379C-0.721505 8.38957 0.297624 12.0109 1.62877 14.0016C2.28062 14.9875 3.06099 16.0682 4.0892 16.0302C5.06243 15.9923 5.44798 15.3762 6.62316 15.3762C7.80743 15.3762 8.14717 16.0302 9.17539 16.0113C10.2403 15.9923 10.9105 15.0255 11.5624 14.0395C12.3059 12.9209 12.609 11.8307 12.6273 11.7738C12.609 11.7549 10.5709 10.9492 10.5525 8.52228C10.5342 6.49365 12.1592 5.52673 12.2326 5.46986C11.3144 4.06682 9.88232 3.91517 9.38652 3.87725ZM16.7587 1.12806V15.9071H18.9804V10.8544H22.056C24.8652 10.8544 26.8391 8.8637 26.8391 5.9818C26.8391 3.1 24.9019 1.12815 22.1294 1.12815L16.7587 1.12806ZM18.9804 3.06199H21.5418C23.4698 3.06199 24.5715 4.1237 24.5715 5.99119C24.5715 7.85867 23.4698 8.92995 21.5326 8.92995H18.9804V3.06199ZM30.897 16.0208C32.2925 16.0208 33.5869 15.2909 34.1745 14.1343H34.2204V15.907H36.277V8.55071C36.277 6.41782 34.6244 5.04322 32.0813 5.04322C29.7218 5.04322 27.9775 6.43678 27.9132 8.35166H29.9147C30.0799 7.44161 30.8969 6.84436 32.017 6.84436C33.3758 6.84436 34.1378 7.49848 34.1378 8.70246V9.51763L31.3652 9.68825C28.7854 9.84938 27.39 10.9396 27.39 12.8356C27.39 14.7505 28.8313 16.0208 30.897 16.0208ZM31.4937 14.267C30.3095 14.267 29.5566 13.6793 29.5566 12.7787C29.5566 11.8498 30.2819 11.3094 31.6682 11.2241L34.1378 11.0629V11.8971C34.1378 13.2811 32.9993 14.267 31.4937 14.267ZM39.0219 19.9264C41.1886 19.9264 42.2077 19.0734 43.0982 16.4853L47 5.1854H44.7415L42.1251 13.9162H42.0792L39.4627 5.1854H37.1399L40.904 15.9449L40.702 16.5991C40.3624 17.7082 39.8115 18.1348 38.8292 18.1348C38.6548 18.1348 38.3151 18.1158 38.1773 18.0969V19.8696C38.3058 19.9075 38.8566 19.9264 39.0219 19.9264Z" fill="black"/>
</svg>
