<svg  viewBox="0 0 32 16" fill="none" xmlns="http://www.w3.org/2000/svg">
<path d="M19.6007 4.44751L27.7489 12.5957L25.4208 14.9237C24.147 16.1976 22.0276 16.1976 20.7647 14.9237L14.9446 9.10361L19.6007 4.44751Z" fill="#134A9F"/>
<path fill-rule="evenodd" clip-rule="evenodd" d="M26.3119 11.0583L22.2378 16H31.2974L26.3119 11.0583Z" fill="#134A9F"/>
<path fill-rule="evenodd" clip-rule="evenodd" d="M20.1284 4.97461L15.3844 9.55384L17.1085 11.3328L20.1284 4.97461Z" fill="black"/>
<path d="M4.11792 11.0582L15.1762 0L20.4143 5.23811L9.93804 15.7143C9.61958 16.0328 9.09248 16.0328 8.77402 15.7143L4.11792 11.0582Z" fill="white"/>
<path fill-rule="evenodd" clip-rule="evenodd" d="M4.94162 10.2346L0 15.9998H9.88323L4.94162 10.2346Z" fill="white"/>
<path d="M4.94053 8.5874H1.64612V9.411H4.94053V8.5874Z" fill="white"/>
<path d="M4.11754 9.41113H2.47034V14.3527H4.11754V9.41113Z" fill="white"/>
</svg>
