<svg width="36" height="18" viewBox="0 0 37 20" fill="none" xmlns="http://www.w3.org/2000/svg">
<path d="M22.6617 5.89307L32.0815 15.3129L29.3901 18.0042C27.9175 19.4769 25.4673 19.4769 24.0074 18.0042L17.2789 11.2758L22.6617 5.89307Z" fill="#42A5F5"/>
<path fill-rule="evenodd" clip-rule="evenodd" d="M30.4194 13.5356L25.7095 19.2485H36.183L30.4194 13.5356Z" fill="#42A5F5"/>
<path fill-rule="evenodd" clip-rule="evenodd" d="M23.2717 6.50244L17.7874 11.7963L19.7805 13.8529L23.2717 6.50244Z" fill="black"/>
<path d="M4.76099 13.5355L17.545 0.751465L23.6006 6.80705L11.4894 18.9182C11.1213 19.2864 10.5119 19.2864 10.1437 18.9182L4.76099 13.5355Z" fill="white"/>
<path fill-rule="evenodd" clip-rule="evenodd" d="M5.71282 12.5835L0 19.2484H11.4256L5.71282 12.5835Z" fill="white"/>
<path d="M5.71553 10.6792H1.90698V11.6313H5.71553V10.6792Z" fill="white"/>
<path d="M4.76084 11.6313H2.85657V17.3442H4.76084V11.6313Z" fill="white"/>
</svg>
